<?xml version="1.0" standalone="no"?>
<!DOCTYPE svg PUBLIC "-//W3C//DTD SVG 20010904//EN"
 "http://www.w3.org/TR/2001/REC-SVG-20010904/DTD/svg10.dtd">
<svg version="1.0" xmlns="http://www.w3.org/2000/svg"
 width="128.000000pt" height="128.000000pt" viewBox="0 0 128.000000 128.000000"
 preserveAspectRatio="xMidYMid meet">
<metadata>
Created by potrace 1.16, written by Peter Selinger 2001-2019
</metadata>
<g transform="translate(0.000000,128.000000) scale(0.100000,-0.100000)"
fill="#000000" stroke="none">
<path d="M273 1258 c-11 -13 -23 -35 -27 -50 -4 -19 -14 -28 -36 -33 -35 -8
-70 -48 -70 -81 0 -19 -5 -24 -26 -24 -36 0 -84 -50 -84 -88 0 -16 -7 -35 -15
-42 -15 -12 -21 -60 -8 -60 3 0 14 7 23 15 14 12 22 11 68 -12 50 -25 52 -27
36 -44 -10 -11 -31 -19 -51 -19 -45 0 -76 -32 -71 -71 3 -17 1 -32 -4 -35 -4
-3 -8 -19 -8 -36 l0 -31 23 21 c18 17 36 22 76 22 29 0 61 4 71 10 27 14 34
57 15 87 -16 24 -16 26 6 49 18 19 25 22 31 11 4 -8 28 -20 53 -27 25 -7 45
-16 45 -19 0 -4 -28 -35 -63 -69 -46 -46 -70 -62 -90 -62 -38 0 -104 -35 -112
-60 -4 -11 -4 -33 0 -48 4 -22 0 -33 -25 -57 -27 -26 -42 -75 -22 -75 4 0 26
18 47 40 22 23 49 40 61 40 12 0 42 15 66 33 35 27 43 39 44 65 0 26 13 45 64
97 36 36 67 65 71 65 3 0 11 -28 17 -62 l10 -63 -36 -38 c-29 -30 -43 -37 -74
-37 -33 0 -42 -5 -68 -42 -16 -22 -30 -53 -30 -67 0 -20 -22 -49 -90 -116 -73
-73 -90 -95 -90 -120 0 -28 5 -25 104 74 92 92 107 103 130 97 15 -4 35 -2 46
4 24 13 60 80 60 112 0 21 45 78 62 78 16 0 7 -86 -13 -130 -27 -59 -86 -120
-118 -120 -17 0 -51 -27 -118 -93 -85 -83 -95 -97 -95 -129 0 -27 -8 -43 -29
-64 -52 -49 -30 -75 26 -30 l30 24 28 -24 c23 -19 40 -24 85 -24 l57 0 175
175 c96 96 181 175 188 175 8 0 39 -7 69 -16 l56 -16 -159 -159 c-144 -145
-156 -159 -130 -159 23 0 56 27 183 152 l154 153 67 10 c60 9 67 13 70 34 4
23 2 24 -38 18 l-42 -5 32 33 c18 18 44 36 59 40 76 18 188 130 206 206 4 15
22 42 42 60 l34 34 -6 -30 c-28 -125 -84 -212 -176 -274 -34 -23 -65 -41 -70
-41 -5 0 -9 -9 -9 -20 0 -12 7 -20 17 -20 11 0 -51 -69 -157 -175 -162 -162
-173 -175 -145 -175 26 0 69 39 318 288 205 205 287 294 287 310 0 25 -10 28
-29 10 -12 -11 -13 -9 -7 7 7 20 36 199 36 224 0 8 -3 11 -7 7 -4 -3 -17 22
-30 56 l-22 63 29 30 c28 29 41 75 22 75 -5 0 -21 -13 -37 -30 -16 -16 -32
-30 -35 -30 -4 0 -21 18 -39 41 l-33 40 76 79 c71 73 93 110 64 110 -7 0 -49
-36 -93 -80 l-81 -81 -50 27 c-27 15 -51 29 -53 31 -3 2 17 26 44 53 49 49 49
50 22 50 -19 0 -43 -14 -75 -43 l-47 -43 -68 11 -69 10 26 24 c32 30 33 41 3
41 -14 0 -39 -16 -62 -40 -21 -22 -55 -45 -74 -51 -57 -19 -113 -49 -159 -87
-35 -28 -46 -32 -53 -21 -15 24 -11 32 73 116 78 78 81 83 54 83 -20 0 -44
-16 -89 -59 l-62 -59 -28 59 -28 59 -53 0 c-42 0 -57 -5 -73 -22z m127 -98
l14 -41 -110 -110 -109 -109 -48 16 c-26 9 -50 20 -53 26 -3 5 7 23 22 39 23
24 34 28 57 23 27 -6 29 -4 26 25 -5 45 42 92 84 84 29 -6 30 -5 24 23 -4 23
1 35 26 62 36 37 43 33 67 -38z m50 -144 l12 -38 -64 -65 -64 -64 -47 18 -47
17 92 93 c51 51 95 89 99 85 4 -4 12 -24 19 -46z m156 -528 l44 -32 -27 -28
c-15 -15 -32 -28 -38 -28 -42 0 -119 -35 -163 -75 -44 -39 -51 -43 -63 -29
-11 13 2 30 92 120 57 57 105 104 107 104 2 0 24 -14 48 -32z m-274 -235 c10
-9 18 -24 18 -33 0 -24 -166 -183 -182 -174 -55 31 -55 32 44 131 51 51 95 93
97 93 2 0 13 -7 23 -17z"/>
<path d="M1075 200 c-180 -180 -197 -200 -171 -200 24 0 58 29 198 167 155
154 186 193 176 223 -1 5 -93 -80 -203 -190z"/>
</g>
</svg>
